/* XPM */
static char * icon32_xpm[] = {
"32 32 668 2",
"  	c None",
". 	c #07618F",
"+ 	c #065F8D",
"@ 	c #075F8D",
"# 	c #076291",
"$ 	c #076695",
"% 	c #086999",
"& 	c #116C9C",
"* 	c #2570A0",
"= 	c #3473A3",
"- 	c #4076A5",
"; 	c #4979A8",
"> 	c #517BA9",
", 	c #567CAA",
"' 	c #507BA9",
") 	c #4578A7",
"! 	c #3A75A4",
"~ 	c #2B71A1",
"{ 	c #176E9E",
"] 	c #086A9A",
"^ 	c #076796",
"/ 	c #076392",
"( 	c #07608E",
"_ 	c #075E8C",
": 	c #124A6B",
"< 	c #014367",
"[ 	c #003B5F",
"} 	c #003456",
"| 	c #003153",
"1 	c #003253",
"2 	c #003A5D",
"3 	c #024268",
"4 	c #084B72",
"5 	c #1A547C",
"6 	c #40677D",
"7 	c #C6BC31",
"8 	c #BEB73E",
"9 	c #637A97",
"0 	c #6379A5",
"a 	c #677DA9",
"b 	c #6178A3",
"c 	c #56729C",
"d 	c #4A6A93",
"e 	c #396189",
"f 	c #22577F",
"g 	c #0B4E75",
"h 	c #03446A",
"i 	c #003354",
"j 	c #003152",
"k 	c #003254",
"l 	c #073F60",
"m 	c #23577E",
"n 	c #003F62",
"o 	c #002F4F",
"p 	c #002946",
"q 	c #002A48",
"r 	c #002D4C",
"s 	c #003352",
"t 	c #003757",
"u 	c #003B5C",
"v 	c #004061",
"w 	c #738838",
"x 	c #BBB322",
"y 	c #B1AC29",
"z 	c #9E9F30",
"A 	c #245173",
"B 	c #225072",
"C 	c #1F4E70",
"D 	c #184A6C",
"E 	c #0C4768",
"F 	c #024263",
"G 	c #003E5F",
"H 	c #003A5A",
"I 	c #003656",
"J 	c #003251",
"K 	c #002C4A",
"L 	c #002A47",
"M 	c #002845",
"N 	c #002B49",
"O 	c #003051",
"P 	c #09466C",
"Q 	c #39709F",
"R 	c #255B84",
"S 	c #003657",
"T 	c #001F3B",
"U 	c #005B89",
"V 	c #0084BF",
"W 	c #0088C3",
"X 	c #008AC6",
"Y 	c #008CC8",
"Z 	c #008FCA",
"` 	c #0191CB",
" .	c #B4C541",
"..	c #87B478",
"+.	c #5CA3AB",
"@.	c #F2D80E",
"#.	c #4A99CD",
"$.	c #4398D0",
"%.	c #3C97D0",
"&.	c #3196CF",
"*.	c #2495CF",
"=.	c #0D93CE",
"-.	c #0092CD",
";.	c #0090CB",
">.	c #008ECA",
",.	c #0087C3",
"'.	c #005986",
").	c #001E39",
"!.	c #002E4E",
"~.	c #0D4B72",
"{.	c #2A6F9E",
"].	c #4277A6",
"^.	c #002B4A",
"/.	c #003A5E",
"(.	c #007AB0",
"_.	c #007CB3",
":.	c #007EB5",
"<.	c #0081B8",
"[.	c #0083BA",
"}.	c #0085BD",
"|.	c #0C88BF",
"1.	c #DFD11C",
"2.	c #65A093",
"3.	c #3B8EC4",
"4.	c #F1D70F",
"5.	c #689FA5",
"6.	c #4290C7",
"7.	c #3D8FC5",
"8.	c #358DC4",
"9.	c #2B8BC2",
"0.	c #1B89C0",
"a.	c #0587BE",
"b.	c #0085BC",
"c.	c #0080B7",
"d.	c #007CB2",
"e.	c #0079B0",
"f.	c #002846",
"g.	c #3072A2",
"h.	c #4277A7",
"i.	c #255B83",
"j.	c #00456C",
"k.	c #006796",
"l.	c #006A9A",
"m.	c #006D9E",
"n.	c #0071A2",
"o.	c #0174A5",
"p.	c #0E76A8",
"q.	c #277BA9",
"r.	c #FBDB04",
"s.	c #4D899F",
"t.	c #4081B3",
"u.	c #D1C62E",
"v.	c #89A377",
"w.	c #4984B5",
"x.	c #4482B4",
"y.	c #3D80B2",
"z.	c #357EB0",
"A.	c #2C7CAD",
"B.	c #1E79AA",
"C.	c #0976A7",
"D.	c #0073A4",
"E.	c #0070A1",
"F.	c #006D9D",
"G.	c #006999",
"H.	c #006695",
"I.	c #002D4B",
"J.	c #00466C",
"K.	c #005781",
"L.	c #005B86",
"M.	c #005F8A",
"N.	c #03638E",
"O.	c #146793",
"P.	c #226B97",
"Q.	c #467B8A",
"R.	c #F9DA06",
"S.	c #4075A1",
"T.	c #4477A5",
"U.	c #BAB740",
"V.	c #A4AA58",
"W.	c #4D7AA8",
"X.	c #4879A7",
"Y.	c #4376A4",
"Z.	c #3C74A1",
"`.	c #34719E",
" +	c #2B6E9A",
".+	c #1F6A96",
"++	c #0F6692",
"@+	c #02628D",
"#+	c #005E89",
"$+	c #005A85",
"%+	c #005680",
"&+	c #003E62",
"*+	c #002947",
"=+	c #003252",
"-+	c #004A70",
";+	c #00537A",
">+	c #005880",
",+	c #005C85",
"'+	c #08608A",
")+	c #1A648E",
"!+	c #266793",
"~+	c #618675",
"{+	c #E6CF16",
"]+	c #3F719E",
"^+	c #4574A1",
"/+	c #A6AB51",
"(+	c #B5B346",
"_+	c #4D78A4",
":+	c #4976A3",
"<+	c #4473A0",
"[+	c #3D719D",
"}+	c #366E9A",
"|+	c #2E6A96",
"1+	c #236792",
"2+	c #15638D",
"3+	c #045F89",
"4+	c #005B84",
"5+	c #00577F",
"6+	c #005279",
"7+	c #004468",
"8+	c #002E4D",
"9+	c #4278A7",
"0+	c #003E60",
"a+	c #00547D",
"b+	c #005882",
"c+	c #005C87",
"d+	c #00608B",
"e+	c #026490",
"f+	c #146894",
"g+	c #226B98",
"h+	c #739468",
"i+	c #CFC328",
"j+	c #3E75A3",
"k+	c #4578A6",
"l+	c #97A461",
"m+	c #C6BE38",
"n+	c #4D7BA9",
"o+	c #4879A8",
"p+	c #4377A5",
"q+	c #3C74A2",
"r+	c #34729F",
"s+	c #2B6E9B",
"t+	c #1F6B97",
"u+	c #0E6793",
"v+	c #01638E",
"w+	c #005C86",
"x+	c #005078",
"y+	c #003A5C",
"z+	c #004063",
"A+	c #004569",
"B+	c #004A6F",
"C+	c #064F75",
"D+	c #16557B",
"E+	c #225980",
"F+	c #2B5E85",
"G+	c #8D994D",
"H+	c #BCB532",
"I+	c #3F6A93",
"J+	c #456D96",
"K+	c #889566",
"L+	c #D3C228",
"M+	c #4D719A",
"N+	c #496F99",
"O+	c #436C95",
"P+	c #3D6992",
"Q+	c #406B88",
"R+	c #728961",
"S+	c #3D6978",
"T+	c #1F587F",
"U+	c #125379",
"V+	c #034E73",
"W+	c #00496D",
"X+	c #003E61",
"Y+	c #003556",
"Z+	c #003F61",
"`+	c #014366",
" @	c #06476A",
".@	c #0B4C6F",
"+@	c #115175",
"@@	c #959F39",
"#@	c #9EA33B",
"$@	c #305F84",
"%@	c #386388",
"&@	c #738667",
"*@	c #E0CA1A",
"=@	c #46698F",
"-@	c #40678C",
";@	c #326083",
">@	c #D7C41B",
",@	c #BAB623",
"'@	c #E4CD0F",
")@	c #13516C",
"!@	c #05476A",
"~@	c #014365",
"{@	c #003A5B",
"]@	c #013757",
"^@	c #003D5F",
"/@	c #004467",
"(@	c #00486C",
"_@	c #004D71",
":@	c #A7AC2A",
"<@	c #849445",
"[@	c #265B80",
"}@	c #305F85",
"|@	c #5F7B6F",
"1@	c #EED30E",
"2@	c #42678C",
"3@	c #3A6489",
"4@	c #326086",
"5@	c #587966",
"6@	c #E8D00D",
"7@	c #0C5375",
"8@	c #CEC218",
"9@	c #52784B",
"0@	c #004567",
"a@	c #004164",
"b@	c #00385A",
"c@	c #002F4E",
"d@	c #013656",
"e@	c #345C4A",
"f@	c #A2A324",
"g@	c #36624F",
"h@	c #C0BA1E",
"i@	c #6A8553",
"j@	c #4E707C",
"k@	c #43688C",
"l@	c #326085",
"m@	c #919B45",
"n@	c #ABAC2E",
"o@	c #0A5276",
"p@	c #919F34",
"q@	c #8B9933",
"r@	c #003758",
"s@	c #002541",
"t@	c #D7C310",
"u@	c #A6A524",
"v@	c #D2C213",
"w@	c #DECA11",
"x@	c #517760",
"y@	c #406786",
"z@	c #FEDD02",
"A@	c #527182",
"B@	c #C0B728",
"C@	c #788E49",
"D@	c #698945",
"E@	c #B1AF23",
"F@	c #03405F",
"G@	c #919628",
"H@	c #727624",
"I@	c #002948",
"J@	c #3476A1",
"K@	c #274E49",
"L@	c #F1D506",
"M@	c #11485A",
"N@	c #FBDB02",
"O@	c #145060",
"P@	c #034E70",
"Q@	c #F8D904",
"R@	c #35666E",
"S@	c #3B648A",
"T@	c #EDD20F",
"U@	c #667E72",
"V@	c #3A648A",
"W@	c #EDD20C",
"X@	c #477164",
"Y@	c #4B7752",
"Z@	c #CEC016",
"`@	c #496C46",
" #	c #DDC40A",
".#	c #F5D604",
"+#	c #1D3F41",
"@#	c #629490",
"##	c #617334",
"$#	c #BBB21A",
"%#	c #E1CB0D",
"&#	c #396752",
"*#	c #1E5D65",
"=#	c #F9DA04",
"-#	c #1C587A",
";#	c #D4C223",
">#	c #818F5E",
",#	c #507273",
"'#	c #F5D707",
")#	c #1F597A",
"!#	c #336A5D",
"~#	c #E7CF0C",
"{#	c #859130",
"]#	c #969420",
"^#	c #CAB60E",
"/#	c #4D6337",
"(#	c #95B063",
"_#	c #9E9A1F",
":#	c #808D30",
"<#	c #C6BA18",
"[#	c #507548",
"}#	c #427155",
"|#	c #DBC813",
"1#	c #19567B",
"2#	c #B2AD3E",
"3#	c #A7A642",
"4#	c #869451",
"5#	c #C1B826",
"6#	c #1B577C",
"7#	c #1A5C68",
"8#	c #FCDC02",
"9#	c #034667",
"0#	c #AFAB20",
"a#	c #6A7930",
"b#	c #ABA015",
"c#	c #6B7A30",
"d#	c #0F4B71",
"e#	c #D7CA20",
"f#	c #648D96",
"g#	c #07324A",
"h#	c #E9CD07",
"i#	c #345C4B",
"j#	c #B1AD1F",
"k#	c #68833F",
"l#	c #00486B",
"m#	c #6B8943",
"n#	c #B4B226",
"o#	c #808E65",
"p#	c #DFCA18",
"q#	c #3B6489",
"r#	c #CCBE23",
"s#	c #7D8F4E",
"t#	c #044F71",
"u#	c #FCDB02",
"v#	c #1A545E",
"w#	c #D6C411",
"x#	c #43603F",
"y#	c #8B891E",
"z#	c #8F9428",
"A#	c #567345",
"B#	c #D9C513",
"C#	c #D9C921",
"D#	c #637F5C",
"E#	c #969926",
"F#	c #989D29",
"G#	c #809135",
"H#	c #9BA42D",
"I#	c #87983C",
"J#	c #4B6C8E",
"K#	c #DCC71C",
"L#	c #C5B92A",
"M#	c #E6CE11",
"N#	c #31617C",
"O#	c #004D72",
"P#	c #DFCA10",
"Q#	c #3A6751",
"R#	c #0A4761",
"S#	c #174550",
"T#	c #405432",
"U#	c #E5CC0A",
"V#	c #E6CE0B",
"W#	c #6B8B6C",
"X#	c #718E76",
"Y#	c #B6B12F",
"Z#	c #8C8F25",
"`#	c #114253",
" $	c #798A35",
".$	c #A1A528",
"+$	c #D7C613",
"@$	c #4E7857",
"#$	c #486A90",
"$$	c #4D6E85",
"%$	c #7E8E5B",
"&$	c #466C78",
"*$	c #285C81",
"=$	c #B3B123",
"-$	c #6A843E",
";$	c #456C4A",
">$	c #DBC60F",
",$	c #003859",
"'$	c #2C4B3F",
")$	c #346364",
"!$	c #003151",
"~$	c #013858",
"{$	c #004062",
"]$	c #476C49",
"^$	c #D7C512",
"/$	c #2E635B",
"($	c #F2D508",
"_$	c #175873",
":$	c #1E587C",
"<$	c #295C81",
"[$	c #336086",
"}$	c #3D658A",
"|$	c #43688D",
"1$	c #3C658A",
"2$	c #346186",
"3$	c #2B5D82",
"4$	c #20587D",
"5$	c #115377",
"6$	c #064F73",
"7$	c #6A8644",
"8$	c #C7BC18",
"9$	c #BDB51B",
"0$	c #7C8B33",
"a$	c #00395B",
"b$	c #003050",
"c$	c #003150",
"d$	c #0E4D72",
"e$	c #155277",
"f$	c #115075",
"g$	c #0A4F6E",
"h$	c #DAC813",
"i$	c #E4CC0F",
"j$	c #929B45",
"k$	c #36638A",
"l$	c #3C668E",
"m$	c #416A92",
"n$	c #476D95",
"o$	c #4C6F98",
"p$	c #4C6F97",
"q$	c #3C678E",
"r$	c #295A80",
"s$	c #23587A",
"t$	c #8A993E",
"u$	c #7F953C",
"v$	c #064A67",
"w$	c #003B5D",
"x$	c #23567D",
"y$	c #00304F",
"z$	c #0F5E88",
"A$	c #115E87",
"B$	c #035B83",
"C$	c #11627D",
"D$	c #3B7670",
"E$	c #1F628B",
"F$	c #29658F",
"G$	c #316993",
"H$	c #386B96",
"I$	c #3E6E98",
"J$	c #43709B",
"K$	c #49729D",
"L$	c #48729D",
"M$	c #2A658F",
"N$	c #045B83",
"O$	c #004F76",
"P$	c #00486D",
"Q$	c #003858",
"R$	c #0D476C",
"S$	c #2D6D9A",
"T$	c #040404",
"U$	c #000000",
"V$	c #030303",
"W$	c #1A1A1A",
"X$	c #8A8A8A",
"Y$	c #ABABAB",
"Z$	c #ADADAD",
"`$	c #8E8E8E",
" %	c #101010",
".%	c #2A2A2A",
"+%	c #CACACA",
"@%	c #161616",
"#%	c #B4B4B4",
"$%	c #555555",
"%%	c #8E8E8D",
"&%	c #515151",
"*%	c #151515",
"=%	c #A4A3A3",
"-%	c #2B2B2A",
";%	c #C6C6C6",
">%	c #414141",
",%	c #BDBDBD",
"'%	c #A6A6A5",
")%	c #222221",
"!%	c #292929",
"~%	c #C7C7C6",
"{%	c #404040",
"]%	c #444444",
"^%	c #5F5F5F",
"/%	c #717171",
"(%	c #373737",
"_%	c #737372",
":%	c #454545",
"<%	c #7B7B7B",
"[%	c #666565",
"}%	c #FEFEFE",
"|%	c #3E3E3E",
"1%	c #AFAFAF",
"2%	c #A6A6A6",
"3%	c #9C9B9B",
"4%	c #B9B9B9",
"5%	c #1C1C1C",
"6%	c #818080",
"7%	c #0D0D0D",
"8%	c #7B7A7A",
"9%	c #7E7E7E",
"0%	c #5E5E5E",
"a%	c #0C0C0C",
"b%	c #F9F9F9",
"c%	c #4B4B4B",
"d%	c #A1A1A1",
"e%	c #141414",
"f%	c #C0C0BF",
"g%	c #ACABAB",
"h%	c #767575",
"i%	c #989898",
"j%	c #969695",
"k%	c #BABABA",
"l%	c #424242",
"m%	c #FBFBFB",
"n%	c #7D7D7D",
"o%	c #FCFCFC",
"p%	c #0E0E0D",
"q%	c #797979",
"r%	c #D8D8D8",
"s%	c #353535",
"t%	c #F5F4F4",
"u%	c #242424",
"v%	c #616060",
"w%	c #EEEEEE",
"x%	c #232323",
"y%	c #888888",
"z%	c #7E7D7D",
"A%	c #929292",
"B%	c #060606",
"C%	c #2C2C2C",
"D%	c #FFFFFF",
"E%	c #505050",
"F%	c #212121",
"G%	c #898989",
"H%	c #E9E9E9",
"I%	c #060505",
"J%	c #F1F1F1",
"K%	c #5D5D5D",
"L%	c #C9C9C9",
"M%	c #878787",
"N%	c #818181",
"O%	c #E4E3E3",
"P%	c #838282",
"Q%	c #D7D7D7",
"R%	c #434343",
"S%	c #FDFDFD",
"T%	c #CFCECE",
"U%	c #7C7C7C",
"V%	c #949494",
"W%	c #BCBCBC",
"X%	c #262525",
"Y%	c #AEAEAD",
"Z%	c #6D6D6D",
"`%	c #B3B3B3",
" &	c #DFDFDE",
".&	c #0A0A0A",
"+&	c #808080",
"@&	c #AAAAAA",
"#&	c #ACACAC",
"$&	c #9A9A9A",
"%&	c #A7A7A7",
"&&	c #010101",
"*&	c #9E9E9E",
"=&	c #3C3C3C",
"-&	c #313131",
";&	c #A8A8A8",
">&	c #727271",
",&	c #0E0E0E",
"'&	c #9C9C9C",
")&	c #070707",
"!&	c #606060",
"~&	c #2E2E2E",
"{&	c #AEAEAE",
"]&	c #A4A4A4",
"^&	c #4D4D4D",
"/&	c #090909",
"(&	c #020202",
"_&	c #050505",
"      . + @ @ # $ % & * = - ; > , ' ) ! ~ { ] ^ / ( @ @ _       ",
"  : < [ } | 1 2 3 4 5 6 7 8 9 0 a b c d e f g h [ i j j k } l   ",
"  m n o p q r s t u v w x y z A B C D E F G H I J K L M N O P   ",
"Q R S T U V W X Y Z `  ...+.@.#.$.%.&.*.=.-.;.>.Y X ,.'.).!.~.{.",
"].R ^./.(._.:.<.[.}.|.1.2.3.4.5.6.7.8.9.0.a.b.[.c.:.d.e.^.f.~.g.",
"h.i.^.j.k.l.m.n.o.p.q.r.s.t.u.v.w.x.y.z.A.B.C.D.E.F.G.H.2 f.~.g.",
"h.i.I.J.K.L.M.N.O.P.Q.R.S.T.U.V.W.X.Y.Z.`. +.+++@+#+$+%+&+*+~.g.",
"h.R =+-+;+>+,+'+)+!+~+{+]+^+/+(+_+:+<+[+}+|+1+2+3+4+5+6+7+8+~.g.",
"9+R 0+a+b+c+d+e+f+g+h+i+j+k+l+m+n+o+p+q+r+s+t+u+v+M.w+b+x+y+~.g.",
"h.R y+z+A+B+C+D+E+F+G+H+I+J+K+L+M+N+O+P+Q+R+S+T+U+V+W+7+X+S ~.g.",
"9+R Y+t u Z+`+ @.@+@@@#@$@%@&@*@=@-@%@;@>@,@'@)@!@~@X+{@=+J ~.g.",
"9+R J ]@u ^@z+/@(@_@:@<@[@}@|@1@2@3@4@5@6@7@8@9@0@a@0+b@N 8+~.g.",
"h.i.c@d@e@f@g@/@(@_@h@i@[@}@j@r.k@3@l@m@n@o@p@q@0@a@0+r@s@^.~.g.",
"h.R r d@t@u@v@/@(@_@w@x@[@}@y@z@A@3@l@B@C@o@D@E@0@a@F@G@H@I@~.J@",
"h.i.K K@L@M@N@O@(@P@Q@R@[@}@S@T@U@V@l@W@X@o@Y@Z@0@a@`@ #.#+#~.@#",
"9+R N ##$#^@%#&#(@*#=#-#[@}@S@;#>#V@,#'#)#o@!#~#0@a@{#]#^#/#~.(#",
"9+R K _#:#^@<#[#(@}#|#1#[@}@S@2#3#V@4#5#6#o@7#8#9#a@0#a#b#c#d#e#",
"f#R g#h#i#^@j#k#l#m#n#1#[@}@S@o#p#q#r#s#6#o@t#u#v#a@w#x#y#z#A#B#",
"C#D#E#$#u ^@F#G#(@H#I#1#[@}@S@J#K#L#M#N#6#o@O#P#Q#R#N@S#T#U#V#W#",
"X#Y#Z#`#u ^@ $.$(@+$@$1#[@}@S@#$$$%$&$*$6#o@O#=$-$;$>$,$*+'$)$g.",
"9+R !$~$^@{$]$^$/$($_$:$<$[$}$#$|$1$2$3$4$5$6$7$8$9$0$a$b$c$~.g.",
"9+R !$d$e$f$g$h$i$j$}@k$l$m$n$o$p$n$m$q$k$}@r$s$t$u$v$a@w$Y+~.g.",
"]+x$y$z$A$B$>+C$D$E$F$G$H$I$J$K$L$J$I$H$G$M$E$A$N$5+;+O$P$Q$R$S$",
"T$U$U$U$U$U$U$U$U$U$U$U$U$U$U$U$U$U$U$U$U$U$U$U$U$U$U$U$U$U$U$V$",
"T$W$X$Y$Z$`$ %U$U$U$U$.%+%@%U$U$U$#%$%%%&%U$*%=%-%;%>%U$U$U$U$V$",
"T$,%'%)%!%~%{%]%^%/%$%(%_%U$:%<%[%}%|%1%2%U$3%4%5%6%7%:%8%9%0%V$",
"a%b%c%!%d%d%e%f%g%h%i%j%k%l%m%&%n%o%p%q%r%s%t%u%v%w%x%}%y%z%A%B%",
"C%D%E%F%G%H%I%J%K%U$U$L%M%N%O%T$P%Q%U$R%S%T%U%U$V%W%X%Y%Z%`% &T$",
".&+&@&#&$&(%e%%&F%U$&&*&=&-&g%;&$&>&U$,&%&'&)&U$n%!&~&{&]&=%^&B%",
"  U$U$U$U$U$U$U$U$U$U$U$U$U$U$U$U$U$U$U$U$U$U$U$U$U$U$U$U$U$U$  ",
"  /&U$U$U$U$U$U$U$U$U$U$U$U$U$U$U$U$U$U$U$U$U$U$U$U$U$U$U$U$/&  ",
"      B%T$(&(&(&(&(&(&(&(&(&(&(&(&(&(&(&(&(&(&(&(&(&(&_&B%      "};
